<svg width="407" height="76" viewBox="0 0 407 76" fill="none" xmlns="http://www.w3.org/2000/svg">
<g filter="url(#filter0_dd_68_374)">
<path d="M21.0456 58.9773H4.00018L32.8638 0.795475H54.4547L64.0002 58.9773H46.9547L41.2729 16.8182H40.8184L21.0456 58.9773ZM21.7275 36.0227H53.7729L51.7274 47.8409H19.682L21.7275 36.0227ZM95.0584 0.795475L85.3993 58.9773H69.6039L79.263 0.795475H95.0584ZM169.107 22.6137H153.311C153.425 21.269 153.349 20.0568 153.084 18.9773C152.819 17.8977 152.364 16.9697 151.72 16.1932C151.076 15.3977 150.234 14.7917 149.192 14.375C148.15 13.9584 146.91 13.75 145.47 13.75C142.705 13.75 140.234 14.4413 138.056 15.8239C135.878 17.1875 134.069 19.1477 132.629 21.7046C131.19 24.2424 130.167 27.2727 129.561 30.7955C129.031 34.2046 129.012 37.036 129.504 39.2898C130.016 41.5436 131.01 43.2292 132.487 44.3466C133.984 45.464 135.925 46.0227 138.311 46.0227C139.902 46.0227 141.361 45.8334 142.686 45.4546C144.031 45.0758 145.224 44.536 146.266 43.8352C147.326 43.1156 148.226 42.2633 148.965 41.2784C149.722 40.2746 150.3 39.1667 150.698 37.9546H166.607C166.001 40.4167 164.921 42.9356 163.368 45.5114C161.815 48.0682 159.807 50.4262 157.345 52.5852C154.883 54.7254 151.986 56.4584 148.652 57.7841C145.319 59.1099 141.569 59.7727 137.402 59.7727C131.948 59.7727 127.241 58.5796 123.283 56.1932C119.343 53.8068 116.484 50.322 114.703 45.7387C112.942 41.1553 112.592 35.5682 113.652 28.9773C114.713 22.6137 116.806 17.2822 119.931 12.983C123.056 8.68373 126.853 5.4451 131.323 3.26707C135.792 1.08904 140.546 2.00272e-05 145.584 2.00272e-05C149.391 2.00272e-05 152.8 0.501913 155.811 1.5057C158.842 2.50949 161.389 3.97729 163.453 5.90911C165.537 7.82199 167.071 10.1799 168.056 12.983C169.04 15.786 169.391 18.9962 169.107 22.6137ZM231.33 30.9091C230.269 37.2349 228.167 42.5379 225.023 46.8182C221.879 51.0985 218.063 54.3277 213.574 56.5057C209.085 58.6837 204.284 59.7727 199.171 59.7727C193.716 59.7727 188.981 58.589 184.966 56.2216C180.951 53.8542 178.025 50.3883 176.188 45.8239C174.351 41.2595 173.981 35.6818 175.08 29.0909C176.102 22.7652 178.186 17.4432 181.33 13.125C184.474 8.80684 188.309 5.53979 192.835 3.32388C197.362 1.10798 202.201 2.00272e-05 207.352 2.00272e-05C212.769 2.00272e-05 217.476 1.1932 221.472 3.57957C225.487 5.96593 228.404 9.46025 230.222 14.0625C232.059 18.6648 232.428 24.2803 231.33 30.9091ZM215.421 29.0909C215.951 25.7576 215.989 22.9546 215.534 20.6818C215.08 18.3902 214.123 16.6667 212.665 15.5114C211.207 14.3371 209.246 13.75 206.784 13.75C203.981 13.75 201.5 14.4318 199.341 15.7955C197.182 17.1591 195.392 19.1193 193.972 21.6762C192.551 24.233 191.557 27.3106 190.989 30.9091C190.383 34.2803 190.326 37.0834 190.818 39.3182C191.33 41.5531 192.334 43.2292 193.83 44.3466C195.345 45.464 197.315 46.0227 199.739 46.0227C202.504 46.0227 204.947 45.3599 207.068 44.0341C209.209 42.7084 210.979 40.786 212.381 38.2671C213.801 35.7481 214.815 32.6894 215.421 29.0909ZM243.638 0.795475H263.297L271.365 33.75H272.047L291.024 0.795475H310.683L301.024 58.9773H285.57L291.138 25.3409H290.683L272.274 58.5227H262.956L255.57 25.1137H255.115L249.433 58.9773H233.979L243.638 0.795475ZM333.965 0.795475L324.306 58.9773H308.51L318.169 0.795475H333.965ZM392.075 22.6137H376.28C376.394 21.269 376.318 20.0568 376.053 18.9773C375.788 17.8977 375.333 16.9697 374.689 16.1932C374.045 15.3977 373.202 14.7917 372.161 14.375C371.119 13.9584 369.878 13.75 368.439 13.75C365.674 13.75 363.202 14.4413 361.024 15.8239C358.846 17.1875 357.038 19.1477 355.598 21.7046C354.159 24.2424 353.136 27.2727 352.53 30.7955C352 34.2046 351.981 37.036 352.473 39.2898C352.985 41.5436 353.979 43.2292 355.456 44.3466C356.952 45.464 358.894 46.0227 361.28 46.0227C362.871 46.0227 364.329 45.8334 365.655 45.4546C367 45.0758 368.193 44.536 369.235 43.8352C370.295 43.1156 371.195 42.2633 371.933 41.2784C372.691 40.2746 373.269 39.1667 373.666 37.9546H389.575C388.969 40.4167 387.89 42.9356 386.337 45.5114C384.784 48.0682 382.776 50.4262 380.314 52.5852C377.852 54.7254 374.954 56.4584 371.621 57.7841C368.288 59.1099 364.538 59.7727 360.371 59.7727C354.916 59.7727 350.21 58.5796 346.252 56.1932C342.312 53.8068 339.452 50.322 337.672 45.7387C335.911 41.1553 335.56 35.5682 336.621 28.9773C337.682 22.6137 339.774 17.2822 342.899 12.983C346.024 8.68373 349.822 5.4451 354.291 3.26707C358.761 1.08904 363.515 2.00272e-05 368.553 2.00272e-05C372.36 2.00272e-05 375.769 0.501913 378.78 1.5057C381.81 2.50949 384.358 3.97729 386.422 5.90911C388.505 7.82199 390.039 10.1799 391.024 12.983C392.009 15.786 392.36 18.9962 392.075 22.6137Z" fill="url(#paint0_linear_68_374)"/>
</g>
<defs>
<filter id="filter0_dd_68_374" x="0" y="0" width="406.702" height="75.9727" filterUnits="userSpaceOnUse" color-interpolation-filters="sRGB">
<feFlood flood-opacity="0" result="BackgroundImageFix"/>
<feColorMatrix in="SourceAlpha" type="matrix" values="0 0 0 0 0 0 0 0 0 0 0 0 0 0 0 0 0 0 127 0" result="hardAlpha"/>
<feOffset dy="4"/>
<feGaussianBlur stdDeviation="2"/>
<feComposite in2="hardAlpha" operator="out"/>
<feColorMatrix type="matrix" values="0 0 0 0 0 0 0 0 0 0 0 0 0 0 0 0 0 0 0.25 0"/>
<feBlend mode="normal" in2="BackgroundImageFix" result="effect1_dropShadow_68_374"/>
<feColorMatrix in="SourceAlpha" type="matrix" values="0 0 0 0 0 0 0 0 0 0 0 0 0 0 0 0 0 0 127 0" result="hardAlpha"/>
<feOffset dx="7" dy="9"/>
<feGaussianBlur stdDeviation="3.6"/>
<feComposite in2="hardAlpha" operator="out"/>
<feColorMatrix type="matrix" values="0 0 0 0 0 0 0 0 0 0 0 0 0 0 0 0 0 0 0.55 0"/>
<feBlend mode="normal" in2="effect1_dropShadow_68_374" result="effect2_dropShadow_68_374"/>
<feBlend mode="normal" in="SourceGraphic" in2="effect2_dropShadow_68_374" result="shape"/>
</filter>
<linearGradient id="paint0_linear_68_374" x1="5.81836" y1="-5.5227" x2="397.039" y2="29.4658" gradientUnits="userSpaceOnUse">
<stop stop-color="#A168FC"/>
<stop offset="1" stop-color="#FA3CC3"/>
</linearGradient>
</defs>
</svg>
